<svg width="1024" height="1024" viewBox="0 0 1024 1024" fill="none" xmlns="http://www.w3.org/2000/svg">
<rect width="1024" height="1024" fill="url(#paint0_linear_2741_6880)"/>
<path d="M501.927 177.008C717.796 178.277 805.185 306.497 806.855 466.196C807.766 555.386 757.316 632.41 679.996 679.397C642.297 709.781 687.181 809.348 723.109 834.773C723.109 834.773 596.098 824.914 561.081 722.926C541.751 726.154 521.865 727.826 501.472 727.826C333.068 727.826 197 625.895 197 466.196C197 306.497 283.985 175.798 501.927 177.008Z" fill="white" stroke="black" stroke-opacity="0.9" stroke-width="50" stroke-miterlimit="10" stroke-linejoin="round"/>
<path d="M501.331 485C487.442 485 475.636 480.139 465.914 470.417C456.192 460.694 451.331 448.889 451.331 435V335C451.331 321.111 456.192 309.306 465.914 299.583C475.636 289.861 487.442 285 501.331 285C515.22 285 527.025 289.861 536.747 299.583C546.47 309.306 551.331 321.111 551.331 335V435C551.331 448.889 546.47 460.694 536.747 470.417C527.025 480.139 515.22 485 501.331 485ZM484.664 601.667V550.417C455.775 546.528 431.886 533.611 412.997 511.667C394.109 489.722 384.664 464.167 384.664 435H417.997C417.997 458.056 426.125 477.711 442.381 493.967C458.636 510.222 478.286 518.344 501.331 518.333C524.375 518.322 544.031 510.194 560.297 493.95C576.564 477.706 584.686 458.056 584.664 435H617.997C617.997 464.167 608.553 489.722 589.664 511.667C570.775 533.611 546.886 546.528 517.997 550.417V601.667H484.664Z" fill="black"/>
<defs>
<linearGradient id="paint0_linear_2741_6880" x1="0" y1="0" x2="252.913" y2="1188.14" gradientUnits="userSpaceOnUse">
<stop stop-color="#E6F0FF"/>
<stop offset="1" stop-color="#FFF0F5"/>
</linearGradient>
</defs>
</svg>
