<svg width="16" height="16" viewBox="0 0 16 16" fill="none" xmlns="http://www.w3.org/2000/svg">
<rect width="16" height="16" fill="black"/>
<path d="M10.4656 7.73438C10.4344 7.73438 10.4063 7.71875 10.3813 7.6875C10.3625 7.65625 10.3656 7.62188 10.3906 7.58438C10.4469 7.50938 10.5281 7.40313 10.6344 7.26563C10.7469 7.12188 10.8656 6.96563 10.9906 6.79688C11.1219 6.62813 11.2469 6.46875 11.3656 6.31875C11.4844 6.1625 11.5813 6.0375 11.6563 5.94375C11.7375 5.84375 11.7781 5.79375 11.7781 5.79375C11.8094 5.75 11.85 5.74375 11.9 5.775C11.9563 5.8 12.0188 5.8375 12.0875 5.8875C12.1625 5.93125 12.2375 5.95938 12.3125 5.97188C12.325 5.97188 12.3344 5.975 12.3406 5.98125C12.3531 5.98125 12.3625 5.98125 12.3688 5.98125C12.4812 5.98125 12.5531 5.91875 12.5844 5.79375C12.6156 5.6875 12.5813 5.5875 12.4813 5.49375C12.3813 5.39375 12.2531 5.30625 12.0969 5.23125C11.9469 5.15625 11.8 5.09375 11.6563 5.04375C11.5125 4.99375 11.4094 4.95938 11.3469 4.94063C10.9469 4.81563 10.5 4.71875 10.0062 4.65C9.5125 4.58125 9.05 4.54688 8.61875 4.54688C8.41875 4.54688 8.175 4.55313 7.8875 4.56563C7.60625 4.57813 7.30625 4.60625 6.9875 4.65C6.675 4.6875 6.36563 4.75 6.05938 4.8375C5.75313 4.91875 5.48125 5.02813 5.24375 5.16563C5.00625 5.30313 4.79688 5.47813 4.61563 5.69063C4.43438 5.89688 4.34375 6.125 4.34375 6.375C4.34375 6.50625 4.35938 6.60313 4.39062 6.66563C4.42188 6.72188 4.45313 6.75 4.48438 6.75C4.55313 6.75 4.5875 6.6875 4.5875 6.5625C4.5875 6.325 4.66563 6.10625 4.82188 5.90625C4.98438 5.70625 5.14688 5.55313 5.30938 5.44687C5.62813 5.23438 6.05 5.07813 6.575 4.97813C7.10625 4.87813 7.65625 4.82813 8.225 4.82813C8.625 4.82813 9.01875 4.85313 9.40625 4.90313C9.79375 4.94688 10.15 5.01563 10.475 5.10938C10.8063 5.20313 11.0781 5.32188 11.2906 5.46563C11.3219 5.47813 11.3375 5.50313 11.3375 5.54063C11.3375 5.57188 11.3219 5.6 11.2906 5.625C11.2656 5.64375 11.2344 5.64063 11.1969 5.61563C10.9906 5.48438 10.7281 5.375 10.4094 5.2875C10.0969 5.19375 9.75313 5.125 9.37813 5.08125C9.00313 5.03125 8.62188 5.00625 8.23438 5.00625C7.67813 5.00625 7.14375 5.05625 6.63125 5.15625C6.125 5.25 5.72188 5.39688 5.42188 5.59688C5.26563 5.70313 5.11875 5.84688 4.98125 6.02813C4.84375 6.20313 4.775 6.38125 4.775 6.5625C4.775 6.68125 4.74375 6.775 4.68125 6.84375C4.625 6.90625 4.55938 6.9375 4.48438 6.9375C4.40313 6.9375 4.32813 6.89375 4.25938 6.80625C4.19063 6.7125 4.15625 6.56875 4.15625 6.375C4.15625 6.175 4.20313 5.9875 4.29688 5.8125C4.39688 5.6375 4.52187 5.48125 4.67188 5.34375C4.82813 5.20625 4.9875 5.09063 5.15 4.99688C5.4 4.85313 5.68125 4.74063 5.99375 4.65938C6.3125 4.57188 6.63438 4.50625 6.95938 4.4625C7.29063 4.41875 7.6 4.39063 7.8875 4.37813C8.18125 4.36563 8.425 4.35938 8.61875 4.35938C8.8625 4.35938 9.15625 4.375 9.5 4.40625C9.84375 4.4375 10.1969 4.4875 10.5594 4.55625C10.9281 4.625 11.2781 4.7125 11.6094 4.81875C11.9406 4.925 12.2125 5.05313 12.425 5.20313C12.525 5.27188 12.6094 5.35 12.6781 5.4375C12.7469 5.525 12.7812 5.62188 12.7812 5.72813C12.7812 5.74688 12.7781 5.76563 12.7719 5.78438C12.7719 5.80313 12.7688 5.82188 12.7625 5.84063C12.7313 5.95938 12.6813 6.04375 12.6125 6.09375C12.5438 6.14375 12.4656 6.16875 12.3781 6.16875C12.2969 6.16875 12.2094 6.15 12.1156 6.1125C12.0219 6.06875 11.9375 6.025 11.8625 5.98125C11.8063 6.05625 11.7156 6.17188 11.5906 6.32813C11.4719 6.47813 11.3406 6.64375 11.1969 6.825C11.0594 7.00625 10.9281 7.17813 10.8031 7.34063C10.6844 7.49688 10.5969 7.61563 10.5406 7.69688C10.5219 7.72188 10.4969 7.73438 10.4656 7.73438ZM8.91875 8.68125C8.825 8.675 8.70313 8.66875 8.55313 8.6625C8.40313 8.65 8.24375 8.6375 8.075 8.625C7.9125 8.60625 7.75937 8.58125 7.61562 8.55C7.47812 8.51875 7.37188 8.475 7.29688 8.41875C7.19688 8.34375 7.14688 8.21563 7.14688 8.03438C7.14688 7.94063 7.16875 7.85625 7.2125 7.78125C7.2625 7.7 7.34375 7.65625 7.45625 7.65C7.49375 7.64375 7.53125 7.64063 7.56875 7.64063C7.60625 7.64063 7.64063 7.64063 7.67188 7.64063C7.95938 7.64063 8.24063 7.67813 8.51563 7.75313C8.79063 7.82813 9.06875 7.88125 9.35 7.9125C9.55 7.6625 9.75625 7.40313 9.96875 7.13438C10.1875 6.85938 10.3875 6.60938 10.5687 6.38438C10.75 6.15313 10.8844 5.98125 10.9719 5.86875C10.9906 5.84375 11.0156 5.83125 11.0469 5.83125C11.0781 5.83125 11.1063 5.85 11.1312 5.8875C11.1562 5.91875 11.1531 5.95 11.1219 5.98125C11.0281 6.1 10.8875 6.27813 10.7 6.51563C10.5125 6.74688 10.3094 7 10.0906 7.275C9.87188 7.55 9.66563 7.8125 9.47188 8.0625C9.45313 8.08125 9.4125 8.09063 9.35 8.09063C9.26875 8.09063 9.16562 8.07813 9.04063 8.05313C8.91563 8.02813 8.8 8.00313 8.69375 7.97813C8.5875 7.95313 8.525 7.9375 8.50625 7.93125C8.33125 7.9 8.15625 7.875 7.98125 7.85625C7.80625 7.83125 7.6375 7.825 7.475 7.8375C7.43125 7.84375 7.39688 7.87188 7.37188 7.92188C7.34688 7.97188 7.33437 8.025 7.33437 8.08125C7.33437 8.175 7.35938 8.2375 7.40938 8.26875C7.46563 8.3125 7.5625 8.34688 7.7 8.37188C7.8375 8.39688 7.98438 8.41875 8.14062 8.4375C8.30313 8.45 8.45625 8.4625 8.6 8.475C8.75 8.48125 8.8625 8.4875 8.9375 8.49375C8.99375 8.49375 9.02188 8.525 9.02188 8.5875C9.02188 8.6125 9.0125 8.6375 8.99375 8.6625C8.975 8.68125 8.95 8.6875 8.91875 8.68125ZM4.775 11.6438C4.6125 11.6438 4.4375 11.625 4.25 11.5875C4.06875 11.55 3.89375 11.4906 3.725 11.4094C3.5625 11.3281 3.42812 11.2188 3.32187 11.0813C3.22187 10.9438 3.17188 10.775 3.17188 10.575C3.17188 10.2813 3.25625 10.0125 3.425 9.76875C3.6 9.525 3.825 9.31563 4.1 9.14063C4.38125 8.96563 4.6875 8.83125 5.01875 8.7375C5.35625 8.64375 5.6875 8.59688 6.0125 8.59688C6.11875 8.59688 6.27187 8.60938 6.47187 8.63438C6.67187 8.65938 6.87188 8.70313 7.07188 8.76563C7.27813 8.82813 7.44375 8.91875 7.56875 9.0375C7.6375 9.1 7.68437 9.1625 7.70937 9.225C7.73437 9.2875 7.74688 9.35 7.74688 9.4125C7.74688 9.51875 7.70938 9.6125 7.63438 9.69375C7.56563 9.76875 7.47813 9.80625 7.37188 9.80625C7.25313 9.80625 7.1375 9.75313 7.025 9.64688C6.94375 9.57188 6.81562 9.4875 6.64062 9.39375C6.47187 9.3 6.25313 9.25313 5.98438 9.25313C5.60938 9.25313 5.27813 9.31563 4.99063 9.44063C4.70313 9.55938 4.47813 9.70938 4.31563 9.89063C4.15313 10.0656 4.07188 10.2344 4.07188 10.3969C4.07188 10.5406 4.14688 10.6656 4.29688 10.7719C4.44688 10.8719 4.6875 10.9219 5.01875 10.9219C5.3125 10.9219 5.66563 10.8406 6.07812 10.6781C6.49063 10.5156 6.9125 10.2781 7.34375 9.96563C7.78125 9.65313 8.18438 9.275 8.55313 8.83125C8.57188 8.80625 8.59688 8.79375 8.62813 8.79375C8.65938 8.79375 8.6875 8.8125 8.7125 8.85C8.7375 8.88125 8.73437 8.9125 8.70312 8.94375C8.32812 9.4 7.91563 9.79063 7.46563 10.1156C7.01563 10.4344 6.575 10.6813 6.14375 10.8563C5.7125 11.025 5.3375 11.1094 5.01875 11.1094C4.625 11.1094 4.3375 11.0406 4.15625 10.9031C3.975 10.7656 3.88438 10.6 3.88438 10.4063C3.88438 10.2063 3.96875 10.0031 4.1375 9.79688C4.3125 9.59063 4.55625 9.41875 4.86875 9.28125C5.1875 9.1375 5.55938 9.06563 5.98438 9.06563C6.28438 9.06563 6.53125 9.11875 6.725 9.225C6.91875 9.33125 7.0625 9.42813 7.15625 9.51563C7.24375 9.59063 7.31875 9.62813 7.38125 9.62813C7.43125 9.62813 7.47188 9.60938 7.50313 9.57188C7.53438 9.52813 7.55 9.48125 7.55 9.43125C7.55 9.30625 7.49063 9.20313 7.37188 9.12188C7.25313 9.04063 7.10625 8.975 6.93125 8.925C6.75625 8.875 6.58438 8.84063 6.41563 8.82188C6.24688 8.79688 6.1125 8.78438 6.0125 8.78438C5.70625 8.78438 5.39688 8.82813 5.08438 8.91563C4.77813 9.00313 4.49375 9.12813 4.23125 9.29063C3.975 9.44688 3.76563 9.63438 3.60313 9.85313C3.44688 10.0656 3.36875 10.3 3.36875 10.5563C3.36875 10.7688 3.4375 10.9406 3.575 11.0719C3.71875 11.2031 3.89687 11.3 4.10938 11.3625C4.32813 11.425 4.55 11.4563 4.775 11.4563C5.2625 11.4563 5.72188 11.3844 6.15313 11.2406C6.58438 11.0969 6.98125 10.9125 7.34375 10.6875C7.7125 10.4563 8.04063 10.2156 8.32813 9.96563C8.62188 9.70938 8.87188 9.475 9.07813 9.2625C9.27813 9.04375 9.425 8.86563 9.51875 8.72813C9.6125 8.59063 9.68125 8.52188 9.725 8.52188C9.81875 8.52188 9.97188 8.52188 10.1844 8.52188C10.4031 8.52188 10.6438 8.51563 10.9062 8.50313C11.1687 8.48438 11.425 8.45625 11.675 8.41875C11.925 8.375 12.1281 8.31875 12.2844 8.25C12.3219 8.23125 12.3719 8.2 12.4344 8.15625C12.4969 8.10625 12.55 8.05 12.5938 7.9875C12.6438 7.925 12.6594 7.86563 12.6406 7.80938H12.6219C12.6156 7.80938 12.6031 7.8125 12.5844 7.81875C12.5656 7.81875 12.5406 7.825 12.5094 7.8375C12.2656 7.95625 12.0094 8.03438 11.7406 8.07188C11.4781 8.10313 11.2125 8.11875 10.9438 8.11875C10.825 8.11875 10.7063 8.11875 10.5875 8.11875C10.475 8.1125 10.3625 8.10938 10.25 8.10938C10.1875 8.10938 10.1563 8.07813 10.1563 8.01563C10.1563 7.95313 10.1875 7.92188 10.25 7.92188C10.3625 7.92188 10.475 7.925 10.5875 7.93125C10.7063 7.93125 10.825 7.93125 10.9438 7.93125C11.2 7.93125 11.4531 7.91563 11.7031 7.88438C11.9531 7.85313 12.1938 7.78125 12.425 7.66875C12.5 7.63125 12.5656 7.6125 12.6219 7.6125C12.7594 7.6125 12.8281 7.6875 12.8281 7.8375C12.8281 7.925 12.7906 8.02813 12.7156 8.14688C12.6406 8.25938 12.5219 8.35 12.3594 8.41875C12.1969 8.49375 11.9906 8.55313 11.7406 8.59688C11.4969 8.63438 11.2438 8.6625 10.9813 8.68125C10.7188 8.69375 10.4781 8.70313 10.2594 8.70938C10.0406 8.70938 9.87813 8.70938 9.77188 8.70938C9.30313 9.30938 8.83438 9.8 8.36562 10.1813C7.89687 10.5625 7.44375 10.8594 7.00625 11.0719C6.56875 11.2844 6.15938 11.4313 5.77813 11.5125C5.40313 11.6 5.06875 11.6438 4.775 11.6438Z" fill="white"/>
<path d="M10.4656 7.73438C10.4344 7.73438 10.4063 7.71875 10.3813 7.6875C10.3625 7.65625 10.3656 7.62188 10.3906 7.58438C10.4469 7.50938 10.5281 7.40313 10.6344 7.26563C10.7469 7.12188 10.8656 6.96563 10.9906 6.79688C11.1219 6.62813 11.2469 6.46875 11.3656 6.31875C11.4844 6.1625 11.5813 6.0375 11.6563 5.94375C11.7375 5.84375 11.7781 5.79375 11.7781 5.79375C11.8094 5.75 11.85 5.74375 11.9 5.775C11.9563 5.8 12.0188 5.8375 12.0875 5.8875C12.1625 5.93125 12.2375 5.95938 12.3125 5.97188C12.325 5.97188 12.3344 5.975 12.3406 5.98125C12.3531 5.98125 12.3625 5.98125 12.3688 5.98125C12.4812 5.98125 12.5531 5.91875 12.5844 5.79375C12.6156 5.6875 12.5813 5.5875 12.4813 5.49375C12.3813 5.39375 12.2531 5.30625 12.0969 5.23125C11.9469 5.15625 11.8 5.09375 11.6563 5.04375C11.5125 4.99375 11.4094 4.95938 11.3469 4.94063C10.9469 4.81563 10.5 4.71875 10.0062 4.65C9.5125 4.58125 9.05 4.54688 8.61875 4.54688C8.41875 4.54688 8.175 4.55313 7.8875 4.56563C7.60625 4.57813 7.30625 4.60625 6.9875 4.65C6.675 4.6875 6.36563 4.75 6.05938 4.8375C5.75313 4.91875 5.48125 5.02813 5.24375 5.16563C5.00625 5.30313 4.79688 5.47813 4.61563 5.69063C4.43438 5.89688 4.34375 6.125 4.34375 6.375C4.34375 6.50625 4.35938 6.60313 4.39062 6.66563C4.42188 6.72188 4.45313 6.75 4.48438 6.75C4.55313 6.75 4.5875 6.6875 4.5875 6.5625C4.5875 6.325 4.66563 6.10625 4.82188 5.90625C4.98438 5.70625 5.14688 5.55313 5.30938 5.44687C5.62813 5.23438 6.05 5.07813 6.575 4.97813C7.10625 4.87813 7.65625 4.82813 8.225 4.82813C8.625 4.82813 9.01875 4.85313 9.40625 4.90313C9.79375 4.94688 10.15 5.01563 10.475 5.10938C10.8063 5.20313 11.0781 5.32188 11.2906 5.46563C11.3219 5.47813 11.3375 5.50313 11.3375 5.54063C11.3375 5.57188 11.3219 5.6 11.2906 5.625C11.2656 5.64375 11.2344 5.64063 11.1969 5.61563C10.9906 5.48438 10.7281 5.375 10.4094 5.2875C10.0969 5.19375 9.75313 5.125 9.37813 5.08125C9.00313 5.03125 8.62188 5.00625 8.23438 5.00625C7.67813 5.00625 7.14375 5.05625 6.63125 5.15625C6.125 5.25 5.72188 5.39688 5.42188 5.59688C5.26563 5.70313 5.11875 5.84688 4.98125 6.02813C4.84375 6.20313 4.775 6.38125 4.775 6.5625C4.775 6.68125 4.74375 6.775 4.68125 6.84375C4.625 6.90625 4.55938 6.9375 4.48438 6.9375C4.40313 6.9375 4.32813 6.89375 4.25938 6.80625C4.19063 6.7125 4.15625 6.56875 4.15625 6.375C4.15625 6.175 4.20313 5.9875 4.29688 5.8125C4.39688 5.6375 4.52187 5.48125 4.67188 5.34375C4.82813 5.20625 4.9875 5.09063 5.15 4.99688C5.4 4.85313 5.68125 4.74063 5.99375 4.65938C6.3125 4.57188 6.63438 4.50625 6.95938 4.4625C7.29063 4.41875 7.6 4.39063 7.8875 4.37813C8.18125 4.36563 8.425 4.35938 8.61875 4.35938C8.8625 4.35938 9.15625 4.375 9.5 4.40625C9.84375 4.4375 10.1969 4.4875 10.5594 4.55625C10.9281 4.625 11.2781 4.7125 11.6094 4.81875C11.9406 4.925 12.2125 5.05313 12.425 5.20313C12.525 5.27188 12.6094 5.35 12.6781 5.4375C12.7469 5.525 12.7812 5.62188 12.7812 5.72813C12.7812 5.74688 12.7781 5.76563 12.7719 5.78438C12.7719 5.80313 12.7688 5.82188 12.7625 5.84063C12.7313 5.95938 12.6813 6.04375 12.6125 6.09375C12.5438 6.14375 12.4656 6.16875 12.3781 6.16875C12.2969 6.16875 12.2094 6.15 12.1156 6.1125C12.0219 6.06875 11.9375 6.025 11.8625 5.98125C11.8063 6.05625 11.7156 6.17188 11.5906 6.32813C11.4719 6.47813 11.3406 6.64375 11.1969 6.825C11.0594 7.00625 10.9281 7.17813 10.8031 7.34063C10.6844 7.49688 10.5969 7.61563 10.5406 7.69688C10.5219 7.72188 10.4969 7.73438 10.4656 7.73438ZM8.91875 8.68125C8.825 8.675 8.70313 8.66875 8.55313 8.6625C8.40313 8.65 8.24375 8.6375 8.075 8.625C7.9125 8.60625 7.75937 8.58125 7.61562 8.55C7.47812 8.51875 7.37188 8.475 7.29688 8.41875C7.19688 8.34375 7.14688 8.21563 7.14688 8.03438C7.14688 7.94063 7.16875 7.85625 7.2125 7.78125C7.2625 7.7 7.34375 7.65625 7.45625 7.65C7.49375 7.64375 7.53125 7.64063 7.56875 7.64063C7.60625 7.64063 7.64063 7.64063 7.67188 7.64063C7.95938 7.64063 8.24063 7.67813 8.51563 7.75313C8.79063 7.82813 9.06875 7.88125 9.35 7.9125C9.55 7.6625 9.75625 7.40313 9.96875 7.13438C10.1875 6.85938 10.3875 6.60938 10.5687 6.38438C10.75 6.15313 10.8844 5.98125 10.9719 5.86875C10.9906 5.84375 11.0156 5.83125 11.0469 5.83125C11.0781 5.83125 11.1063 5.85 11.1312 5.8875C11.1562 5.91875 11.1531 5.95 11.1219 5.98125C11.0281 6.1 10.8875 6.27813 10.7 6.51563C10.5125 6.74688 10.3094 7 10.0906 7.275C9.87188 7.55 9.66563 7.8125 9.47188 8.0625C9.45313 8.08125 9.4125 8.09063 9.35 8.09063C9.26875 8.09063 9.16562 8.07813 9.04063 8.05313C8.91563 8.02813 8.8 8.00313 8.69375 7.97813C8.5875 7.95313 8.525 7.9375 8.50625 7.93125C8.33125 7.9 8.15625 7.875 7.98125 7.85625C7.80625 7.83125 7.6375 7.825 7.475 7.8375C7.43125 7.84375 7.39688 7.87188 7.37188 7.92188C7.34688 7.97188 7.33437 8.025 7.33437 8.08125C7.33437 8.175 7.35938 8.2375 7.40938 8.26875C7.46563 8.3125 7.5625 8.34688 7.7 8.37188C7.8375 8.39688 7.98438 8.41875 8.14062 8.4375C8.30313 8.45 8.45625 8.4625 8.6 8.475C8.75 8.48125 8.8625 8.4875 8.9375 8.49375C8.99375 8.49375 9.02188 8.525 9.02188 8.5875C9.02188 8.6125 9.0125 8.6375 8.99375 8.6625C8.975 8.68125 8.95 8.6875 8.91875 8.68125ZM4.775 11.6438C4.6125 11.6438 4.4375 11.625 4.25 11.5875C4.06875 11.55 3.89375 11.4906 3.725 11.4094C3.5625 11.3281 3.42812 11.2188 3.32187 11.0813C3.22187 10.9438 3.17188 10.775 3.17188 10.575C3.17188 10.2813 3.25625 10.0125 3.425 9.76875C3.6 9.525 3.825 9.31563 4.1 9.14063C4.38125 8.96563 4.6875 8.83125 5.01875 8.7375C5.35625 8.64375 5.6875 8.59688 6.0125 8.59688C6.11875 8.59688 6.27187 8.60938 6.47187 8.63438C6.67187 8.65938 6.87188 8.70313 7.07188 8.76563C7.27813 8.82813 7.44375 8.91875 7.56875 9.0375C7.6375 9.1 7.68437 9.1625 7.70937 9.225C7.73437 9.2875 7.74688 9.35 7.74688 9.4125C7.74688 9.51875 7.70938 9.6125 7.63438 9.69375C7.56563 9.76875 7.47813 9.80625 7.37188 9.80625C7.25313 9.80625 7.1375 9.75313 7.025 9.64688C6.94375 9.57188 6.81562 9.4875 6.64062 9.39375C6.47187 9.3 6.25313 9.25313 5.98438 9.25313C5.60938 9.25313 5.27813 9.31563 4.99063 9.44063C4.70313 9.55938 4.47813 9.70938 4.31563 9.89063C4.15313 10.0656 4.07188 10.2344 4.07188 10.3969C4.07188 10.5406 4.14688 10.6656 4.29688 10.7719C4.44688 10.8719 4.6875 10.9219 5.01875 10.9219C5.3125 10.9219 5.66563 10.8406 6.07812 10.6781C6.49063 10.5156 6.9125 10.2781 7.34375 9.96563C7.78125 9.65313 8.18438 9.275 8.55313 8.83125C8.57188 8.80625 8.59688 8.79375 8.62813 8.79375C8.65938 8.79375 8.6875 8.8125 8.7125 8.85C8.7375 8.88125 8.73437 8.9125 8.70312 8.94375C8.32812 9.4 7.91563 9.79063 7.46563 10.1156C7.01563 10.4344 6.575 10.6813 6.14375 10.8563C5.7125 11.025 5.3375 11.1094 5.01875 11.1094C4.625 11.1094 4.3375 11.0406 4.15625 10.9031C3.975 10.7656 3.88438 10.6 3.88438 10.4063C3.88438 10.2063 3.96875 10.0031 4.1375 9.79688C4.3125 9.59063 4.55625 9.41875 4.86875 9.28125C5.1875 9.1375 5.55938 9.06563 5.98438 9.06563C6.28438 9.06563 6.53125 9.11875 6.725 9.225C6.91875 9.33125 7.0625 9.42813 7.15625 9.51563C7.24375 9.59063 7.31875 9.62813 7.38125 9.62813C7.43125 9.62813 7.47188 9.60938 7.50313 9.57188C7.53438 9.52813 7.55 9.48125 7.55 9.43125C7.55 9.30625 7.49063 9.20313 7.37188 9.12188C7.25313 9.04063 7.10625 8.975 6.93125 8.925C6.75625 8.875 6.58438 8.84063 6.41563 8.82188C6.24688 8.79688 6.1125 8.78438 6.0125 8.78438C5.70625 8.78438 5.39688 8.82813 5.08438 8.91563C4.77813 9.00313 4.49375 9.12813 4.23125 9.29063C3.975 9.44688 3.76563 9.63438 3.60313 9.85313C3.44688 10.0656 3.36875 10.3 3.36875 10.5563C3.36875 10.7688 3.4375 10.9406 3.575 11.0719C3.71875 11.2031 3.89687 11.3 4.10938 11.3625C4.32813 11.425 4.55 11.4563 4.775 11.4563C5.2625 11.4563 5.72188 11.3844 6.15313 11.2406C6.58438 11.0969 6.98125 10.9125 7.34375 10.6875C7.7125 10.4563 8.04063 10.2156 8.32813 9.96563C8.62188 9.70938 8.87188 9.475 9.07813 9.2625C9.27813 9.04375 9.425 8.86563 9.51875 8.72813C9.6125 8.59063 9.68125 8.52188 9.725 8.52188C9.81875 8.52188 9.97188 8.52188 10.1844 8.52188C10.4031 8.52188 10.6438 8.51563 10.9062 8.50313C11.1687 8.48438 11.425 8.45625 11.675 8.41875C11.925 8.375 12.1281 8.31875 12.2844 8.25C12.3219 8.23125 12.3719 8.2 12.4344 8.15625C12.4969 8.10625 12.55 8.05 12.5938 7.9875C12.6438 7.925 12.6594 7.86563 12.6406 7.80938H12.6219C12.6156 7.80938 12.6031 7.8125 12.5844 7.81875C12.5656 7.81875 12.5406 7.825 12.5094 7.8375C12.2656 7.95625 12.0094 8.03438 11.7406 8.07188C11.4781 8.10313 11.2125 8.11875 10.9438 8.11875C10.825 8.11875 10.7063 8.11875 10.5875 8.11875C10.475 8.1125 10.3625 8.10938 10.25 8.10938C10.1875 8.10938 10.1563 8.07813 10.1563 8.01563C10.1563 7.95313 10.1875 7.92188 10.25 7.92188C10.3625 7.92188 10.475 7.925 10.5875 7.93125C10.7063 7.93125 10.825 7.93125 10.9438 7.93125C11.2 7.93125 11.4531 7.91563 11.7031 7.88438C11.9531 7.85313 12.1938 7.78125 12.425 7.66875C12.5 7.63125 12.5656 7.6125 12.6219 7.6125C12.7594 7.6125 12.8281 7.6875 12.8281 7.8375C12.8281 7.925 12.7906 8.02813 12.7156 8.14688C12.6406 8.25938 12.5219 8.35 12.3594 8.41875C12.1969 8.49375 11.9906 8.55313 11.7406 8.59688C11.4969 8.63438 11.2438 8.6625 10.9813 8.68125C10.7188 8.69375 10.4781 8.70313 10.2594 8.70938C10.0406 8.70938 9.87813 8.70938 9.77188 8.70938C9.30313 9.30938 8.83438 9.8 8.36562 10.1813C7.89687 10.5625 7.44375 10.8594 7.00625 11.0719C6.56875 11.2844 6.15938 11.4313 5.77813 11.5125C5.40313 11.6 5.06875 11.6438 4.775 11.6438Z" fill="white"/>
</svg>
